/* XPM */
static char *cefbaff17d574b0ee9e77e4704e7454fk7qkDXXLyM10efvX[] = {
/* columns rows colors chars-per-pixel */
"16 16 204 2 ",
"   c None",
".  c #1F150E",
"X  c #1C1413",
"o  c #1C1416",
"O  c #241716",
"+  c #261813",
"@  c #2E1F17",
"#  c #2C1B18",
"$  c #2B1C19",
"%  c #37250D",
"&  c #3F2B0F",
"*  c #392616",
"=  c #3F2C12",
"-  c #31211A",
";  c #332419",
":  c #31201C",
">  c #32221C",
",  c #34221C",
"<  c #35241C",
"1  c #36251D",
"2  c #37251E",
"3  c #302320",
"4  c #382721",
"5  c #3B2A22",
"6  c #3D2A21",
"7  c #3F2B21",
"8  c #3D2E28",
"9  c #3F3428",
"0  c #552F09",
"q  c #57360E",
"w  c #402C10",
"e  c #412F12",
"r  c #442E16",
"t  c #41261F",
"y  c #453010",
"u  c #473011",
"i  c #483211",
"p  c #4A3312",
"a  c #4B3412",
"s  c #4C3512",
"d  c #4C3612",
"f  c #4F3713",
"g  c #4E3C16",
"h  c #4E3218",
"j  c #493A1F",
"k  c #503713",
"l  c #5F3D12",
"z  c #583C16",
"x  c #5D3F15",
"c  c #5E3E14",
"v  c #583E18",
"b  c #442B20",
"n  c #422F2A",
"m  c #412E2E",
"M  c #44342D",
"N  c #513221",
"B  c #4C3934",
"V  c #4C3C3D",
"C  c #574116",
"Z  c #5D4118",
"A  c #5C4419",
"S  c #5F451A",
"D  c #5D461A",
"F  c #5E4818",
"G  c #68410D",
"H  c #614115",
"J  c #684417",
"K  c #644518",
"L  c #654619",
"P  c #634A19",
"I  c #61491C",
"U  c #654D1C",
"Y  c #694918",
"T  c #6A4819",
"R  c #6A491A",
"E  c #6B4A1A",
"W  c #6B4A1B",
"Q  c #6D4B1F",
"!  c #6F4D1C",
"~  c #6F4E1E",
"^  c #7D4C12",
"/  c #744818",
"(  c #704D1D",
")  c #6F531C",
"_  c #735119",
"`  c #73531B",
"'  c #75531E",
"]  c #70541C",
"[  c #79531C",
"{  c #7B561D",
"}  c #78541E",
"|  c #755B1E",
" . c #78581C",
".. c #7C5A1D",
"X. c #7D5E1F",
"o. c #594E35",
"O. c #634926",
"+. c #664826",
"@. c #695639",
"#. c #7E6437",
"$. c #4F3D47",
"%. c #7D6443",
"&. c #90460A",
"*. c #9A4F08",
"=. c #9A5008",
"-. c #9D5D10",
";. c #AB5E07",
":. c #BF5E09",
">. c #89601E",
",. c #996518",
"<. c #8C741F",
"1. c #927918",
"2. c #B67D1F",
"3. c #855C24",
"4. c #806121",
"5. c #846522",
"6. c #856127",
"7. c #826624",
"8. c #8B6323",
"9. c #8D6324",
"0. c #886823",
"q. c #8B6923",
"w. c #8F6824",
"e. c #896C27",
"r. c #8E6E26",
"t. c #8F6F2B",
"y. c #946D27",
"u. c #936F2F",
"i. c #947225",
"p. c #9B7929",
"a. c #9C7828",
"s. c #9D7B29",
"d. c #826B30",
"f. c #946B30",
"g. c #A67A2A",
"h. c #A57F3B",
"j. c #DE6501",
"k. c #E06500",
"l. c #EA7101",
"z. c #EB7D02",
"x. c #CE7C20",
"c. c #907448",
"v. c #AC841D",
"b. c #BE8F11",
"n. c #BCAA0A",
"m. c #A7822B",
"M. c #A3832E",
"N. c #AC832F",
"B. c #AB852C",
"V. c #AC852D",
"C. c #AE872D",
"Z. c #AE8A2F",
"A. c #B48B2B",
"S. c #B18B2F",
"D. c #B28B2F",
"F. c #B48B2F",
"G. c #B48C2F",
"H. c #AE8330",
"J. c #AE8836",
"K. c #A1803B",
"L. c #B78230",
"P. c #B18833",
"I. c #B18C31",
"U. c #B68F31",
"Y. c #B69031",
"T. c #B99031",
"R. c #BA9131",
"E. c #BA9332",
"W. c #CF8607",
"Q. c #D28309",
"!. c #C58318",
"~. c #C5941D",
"^. c #C49E1A",
"/. c #EB8202",
"(. c #FB8401",
"). c #FF8800",
"_. c #FF8F00",
"`. c #FF9500",
"'. c #F49906",
"]. c #FB9B01",
"[. c #FB9907",
"{. c #F89F04",
"}. c #E18F16",
"|. c #EAA806",
" X c #E1A60D",
".X c #FFA300",
"XX c orange",
"oX c #FFAB00",
"OX c #F1AE08",
"+X c #EEB304",
"@X c #E0B90B",
"#X c #E7BB0A",
"$X c #FFBD00",
"%X c #E8BA15",
"&X c #C3933B",
"*X c #C69538",
"=X c #CD9B38",
"-X c #D2A32F",
";X c #FFCC00",
":X c #F7D507",
">X c #FFDC00",
",X c #FFDD02",
"<X c #FFFB00",
"1X c #B18A40",
/* pixels */
"          I.e... .r.M.          ",
"      E.U l *.j.k.:.0 g Y.      ",
"    V.H ^ z.).).).).(.-.x a.    ",
"  U.x / Q..X].!.2.'.XX[.x.J S.  ",
"  P u T |.$XOXP.J.~.b.v.u.+.A   ",
"E.s Z ( #X>X,X-X#.o.d.t.3.~ k U.",
"5.p L 3.^.<Xn.j 9 &X*XN.q.E r q.",
"X.s E 8.g.1.B V M c.=XP.y.[ p ` ",
"A & E >.%.$.m 8 4 > <.A.9.[ s ` ",
"| % K [ f.h.h.@.: , ; P +.( d X.",
"E.y z { @X:X%X1X8 2 O # b N h Z.",
"  C = U +X;X XL.O.$ @ < 7 t z   ",
"  G.s = W.oX.X}.,.O ; 6 2 r B.  ",
"    p.y G /._.`.;.o > 5 . i.    ",
"      I.A q *.l.&.o * A s.      ",
"          Z.5.` ` 5.m.          "
};
