/* XPM */
static char *_7647e98bc06473ec7b3767b3fa4e8e1bSycJqO4OfrcWaQa[] = {
/* columns rows colors chars-per-pixel */
"64 64 243 2 ",
"   c None",
".  c #020201",
"X  c #090603",
"o  c #0F0B04",
"O  c #130D05",
"+  c #160F0D",
"@  c #161006",
"#  c #1C1407",
"$  c #1D140A",
"%  c #1D1313",
"&  c #171314",
"*  c #180B13",
"=  c #21150B",
"-  c #241B09",
";  c #2A1D0A",
":  c #261508",
">  c #331E09",
",  c #231612",
"<  c #261913",
"1  c #2C1D16",
"2  c #2D1E18",
"3  c #26191D",
"4  c #311F19",
"5  c #2D210C",
"6  c #33240C",
"7  c #362A0E",
"8  c #3B2B0F",
"9  c #39270F",
"0  c #2F2019",
"q  c #3E2C10",
"w  c #33221B",
"e  c #39261E",
"r  c #3B291F",
"t  c #362314",
"y  c #3E3010",
"u  c #27272A",
"i  c #3D2A21",
"p  c #372622",
"a  c #39312A",
"s  c #282B34",
"d  c #3A3838",
"f  c #412D0F",
"g  c #48290C",
"h  c #5C340D",
"j  c #412E10",
"k  c #452B1E",
"l  c #472B1C",
"z  c #453112",
"x  c #4C3513",
"c  c #4D3A14",
"v  c #4A331E",
"b  c #523613",
"n  c #533A15",
"m  c #5A3E16",
"M  c #553A19",
"N  c #4A310F",
"B  c #6C360A",
"V  c #432D23",
"C  c #4A2E22",
"Z  c #412F28",
"A  c #45332A",
"S  c #4A3428",
"D  c #533323",
"F  c #563726",
"G  c #553D33",
"H  c #4C3630",
"J  c #544317",
"K  c #5C4217",
"L  c #5E4218",
"P  c #5D4A19",
"I  c #634416",
"U  c #634519",
"Y  c #644A1A",
"T  c #6B4B1B",
"R  c #6C4616",
"E  c #724E1C",
"W  c #774A16",
"Q  c #6B541D",
"!  c #74521D",
"~  c #7A541E",
"^  c #7C591E",
"/  c #725A1F",
"(  c #72430E",
")  c #796814",
"_  c #494538",
"`  c #5D4C3C",
"'  c #574538",
"]  c #584A30",
"[  c #654A24",
"{  c #7E5821",
"}  c #785724",
"|  c #634A38",
" . c #6C5937",
".. c #745B34",
"X. c #7D6524",
"o. c #75613B",
"O. c #3D3D41",
"+. c #544C45",
"@. c #56504A",
"#. c #654C42",
"$. c #68564D",
"%. c #665A54",
"&. c #725946",
"*. c #7B684C",
"=. c #7B6B65",
"-. c #7F726D",
";. c #8B3B00",
":. c #815C1F",
">. c #87571A",
",. c #975918",
"<. c #8C500E",
"1. c #AF5005",
"2. c #986A18",
"3. c #B77A1D",
"4. c #AE6A15",
"5. c #835C21",
"6. c #8B5E22",
"7. c #815728",
"8. c #925F20",
"9. c #856121",
"0. c #8B6323",
"q. c #886926",
"w. c #916524",
"e. c #946A25",
"r. c #996D26",
"t. c #946D29",
"y. c #9A6B28",
"u. c #9C7126",
"i. c #9D732A",
"p. c #9B7B2A",
"a. c #947429",
"s. c #977838",
"d. c #886D31",
"f. c #A96B23",
"g. c #A17527",
"h. c #A37529",
"j. c #A47B2B",
"k. c #AB7C2A",
"l. c #AB7626",
"z. c #B67C2A",
"x. c #A37B32",
"c. c #C35402",
"v. c #CE770A",
"b. c #DA7206",
"n. c #CD6B13",
"m. c #E46702",
"M. c #EA7705",
"N. c #FF7501",
"B. c #FF7B00",
"V. c #F07205",
"C. c #CB7622",
"Z. c #8A7C76",
"A. c #867169",
"S. c #947340",
"D. c #B8861A",
"F. c #B38B16",
"G. c #B7B20A",
"H. c #AC842E",
"J. c #A8862B",
"K. c #B3832C",
"L. c #BA842B",
"P. c #BC8A2D",
"I. c #B58A28",
"U. c #AD8431",
"Y. c #AA8735",
"T. c #B48C33",
"R. c #BB8D34",
"E. c #B58634",
"W. c #BB9333",
"Q. c #B89435",
"!. c #B9942E",
"~. c #938815",
"^. c #C68415",
"/. c #D59716",
"(. c #D28E0F",
"). c #FF8401",
"_. c #FF8D01",
"`. c #F68906",
"'. c #FF9301",
"]. c #FF9A00",
"[. c #F59206",
"{. c #F78D19",
"}. c #EA8E12",
"|. c #C7A218",
" X c #D7A818",
".X c #D3B310",
"XX c #FFA300",
"oX c #FFAC00",
"OX c #F4A105",
"+X c #FFB501",
"@X c #FFBC00",
"#X c #F3BE04",
"$X c #EAB10D",
"%X c #C28A2B",
"&X c #C38E31",
"*X c #C38D38",
"=X c #C39335",
"-X c #C39A34",
";X c #C39639",
":X c #CC9B3B",
">X c #C89736",
",X c #D29C3B",
"<X c #CC932B",
"1X c #F99123",
"2X c #DBB921",
"3X c #CBA236",
"4X c #CBA339",
"5X c #D2A33B",
"6X c #D5A939",
"7X c #DBAC3B",
"8X c #D6A63C",
"9X c #DCB339",
"0X c #CFA82C",
"qX c #E4B53E",
"wX c #E9B93F",
"eX c #FDAF24",
"rX c #D0C70A",
"tX c #FFC400",
"yX c #FFCB00",
"uX c #FFD101",
"iX c #FFDB00",
"pX c #ECCD13",
"aX c #FFE500",
"sX c #FFEB01",
"dX c #FFF200",
"fX c #FFFD00",
"gX c #EFC52A",
"hX c #99845B",
"jX c #908277",
"kX c #BFA443",
"lX c #DAA542",
"zX c #EEBC40",
"xX c #EEB445",
"cX c #F1BF41",
"vX c #E3AC41",
"bX c #F5C342",
"nX c #FECC45",
"mX c #FAC545",
"MX c #FFD147",
"NX c #948E90",
"BX c #A99792",
"VX c #BAB3B2",
"CX c #C0A9A2",
/* pixels */
"                                                      nXwX7X6X3X3X3X7XwXbX                                                      ",
"                                              gX;Xa.P z 6 6 o 6 8 6 @ 5 z J q.Q.qXnX                                            ",
"                                        bXH.P $ q n Y q.:.=X6 R u.I.6 0.g.9.c 8 q J a.9X                                        ",
"                                    qXX.7 5 T ; e.u.k.e.Q Y ; : 7 Y $ c c r.j.r.<X# ; 5 Q 4XnX                                  ",
"                                wXq.5 z 9.h.%XY 6 ; 9 6 B ;.1.1.1.1.1.;.B h h U :.@ f L z . P 6X                                ",
"                            nXp.; O L j.u.T j 6 - x U <.N.B.N.N.N.N.N.N.N.n.f.B 8 # . . - 7 T O } bX                            ",
"                          qXc # ^ e.5.K 8 6 N I <.n.V.N.N.N.N.N.N.N.N.N.N.N.V.n.4.E x ; . ! H.l.5 8 W.                          ",
"                        W.5 Y 0.P.! 8 6 c U ,.M.B.B.N.B.N.B.N.N.N.N.N.B.N.N.B.N.B.m.,.Y x 6 f u.j./ - a.MX                      ",
"                    MXp.@ 9.u.u.6 ; m m W b.).B.B.B.B.).B.B.B.B.B.B.B.B.).B.B.B.B.B.B.n.T Y x : E P.z O / mX                    ",
"                  MXq.@ 9.0.n : b R I >.M.).).).).).).).).).).).B.).).).).).).).).).).`.b.E E R 6 c w.<XX c mX                  ",
"                MXq.$ ^ <Xn 6 ( >.E ~ M.).).).).).).).).).).).).).).).).).).).).).).).).).v.~ >.>.h 8 I 7 K J mX                ",
"                J.o e.p.z B ,.,.>.w.v.'.'._.'._._._._._._.'._._.'.'._._._._.'.).'._._._._.'.4.w.8.f.W O e.I.8 P nX              ",
"              -Xo :.9.L h C.W ( m >._.'.'.'.'.'.'.'.'.'.'.'.'.'.[._.'.'.'.'.'.'.'.'.'.'.'.'.`.f.C.n.f.,.; 6.k.j X.              ",
"            wX$ ^ u.I g ,.f.>.R W (.].].].].].].].].].].].}.3.p.u.u.l.(.].].].].].].].].].].].(.{.{.{.C.>.> y.u.5 T.            ",
"          nXJ m k.9.> W W >.>.I I (.XXXX].XX].XX].XXXXXX^.a.a.a.a.i.a.a.I.].XXXXXX].XXXX].XXXX{.1XgX1X{.4.m y 0.r.7 qX          ",
"          J.. x u.; m E W R I I T ].oXXXoXXXoXXXoXXXoXOXi.x.x.j.j.J.x.p.i./.oXXXXXoXXXoXoXXXoXXX1XeX1XC.,.>.f 8 0.c Y MX        ",
"        zX- z z # 8 I m R ~ U 5.4.+XoXoX+XoXoXoXoXoX+X/.s.k.j.U.U.U.U.U.j.I.oX+XoXoX+X+X+X$XD.0.&.#.` #.| | | ; ! P.- !.        ",
"        X.8 k.0.= x x b m m U 6.D.+X+X+X+X+X+X+X+X+X+X/.U.Y.H.T.T.U.Y.T.Y.P.+X@X@X@X$XF..._ O. .d.x.f.l.2.>.~ N 5 k.z 7 nX      ",
"      qX# ! I.6 x x b n m m U 7.3.@X@X@X@X@X@X@X@X@X@X/.E.T.T.R.T.T.Q.T.T.!.uXtX(.X.d O.X.F.#X@X^.f.f.w.} | ' ' a J X O T.      ",
"      q.z u.8 ; b x b n m U R 6.D.yXtXtXtXtXtXtXtXtXyX X*X=XW.W.;XW.W.W.-XW.F.] s _ J.tXyXtX|.J. .@.+.+.`  .[ [ K O e.:.c nX    ",
"    gX5 ^ ! - 8 b ~ U n m U T 0.D.yXyXyXtXyXyXyXyXyXyXgXlX>X;XQ.;X;X:X>XY._ s _ F.rX$XJ. ._ d +.|  .q.6.E >.E m R 6 E j.7 -X    ",
"    Y.; K.^ # x U U 6.U U U E e.I.uXuXyXuXuXuXuXuXyXuXyX,X,X:X:X:X5XY.` u _ o.d. ._ s d _ ..5.T.j.r.w.:.E y.m U ! z 8 k.K /     ",
"    P z &Xz 6 x m U [ U U U E w.h.pXiXiXiXiXiXiXiXiXiXiXpX,X;X8X;Xo.s s `  ._ s d ` s.Y.y.h.h.u.r.e.^ r.h.{ E U L L - ^ e.y cX  ",
"  cX- ^ r.- j x U U :.U T T E 5.g..XaXaXiXiXiXiXaXiXiXiXaXgXlXY.d u u d s u _ o.T.-XQ.Q.h.Y.w.0.:.9.e.5.5.E T M b c ; n u.z T.  ",
"  :X5 k.^ # q n E ! E L 6.w.0.5.8.%XsXaXaXaXaXaXaXaXaXdXuX2.a u u u u u H s.4XlX>X;XT.j.T.T.6.e.0.0.5.T T U U m m x q j h.n q.  ",
"  p.. - ; 6 Y m n T U { { { e.u.w.y.pXdXsXsXsXsXsXdXfX.Xz * 0 u u u _ s.lXvXlX4X:X;XR.R.Q.Q.j.x.Q.E.9.! T U U L m b x - h.r.J nX",
"  P U R.; 7 y.~ x n L w.T T k.u.i.y.3.sXdXsXdXdXfXrX) 3 < 4 4 1 0 u s.mXxXvXlX5X:X:XR.R.Q.T.i.t.p.x.5.! 5.T U m m c b - T e.z wX",
"nX8 - 0.5 q b b b m m U Y h.t.r.h.J.h.|.fXfXdXfX.Xv 3 0 4 4 1 < 0 0 0 [ lXxXlXlX:X:X*XR.T.U.r.i.j.j.5.5.5.{ U L m b c 5 z u.n 6X",
"wX; ! 9.- c c m U T E } :.6.{ t.i.k.U.l.2XfXfXrXM p > D $.=.#.p w w 1 & C :XxXvX,X,X=XR.R.U.y.i.x.p.5.t.{ h.{ L K b b 6 y j.n W.",
"qX$ u.! # m L m U T E ~ { 6.9.5.p.j.K.R.z.pXrXF p w A.VXBXBXBX=.i w w 1 0 H ..;X8X,X=X*XR.U.h.i.J.j.5.{ r.h.5.L K n b 9 c I.8 !.",
"6X@ ^ ! # N T E U E ~ 5.5.5.e.e.0.j.k.R.R.7.V 4 i H A.%.: p H +.e a =.NXjXVXNX&.,X,X=X*XR.U.i.h.j.i.t.} } T w.T M n b 8 8 P.c J.",
"6X# K./ # f x L M L U E 5.5.0.t.6.j.K.t.F V e i ` G w = o * 3 H w w a %.%.%.@.[ 9X,X=XR.R.U.i.u.x.a.r.0.E T U L m n x f 9 j.f p.",
"6X# u.^ - L m b b m m U t.e.e.e.y.x.F #.| 4 e p i ` H e < % Z G i p w e w 0 0 0 ~.gXR.R.Q.U.i.w.t.i.t.t.6.T U U M b c j z ^ 5 j.",
"6X# 9.n 5 b M U U } E m ~ 9.0.e.h.*.H -.VXH : : Z #.G Z G H #.&.G w w w w r w w 3 G.pXE.E.U.i.w.6.0.r.0.0.5.Y L m b x q j e.q J.",
"9Xo O . $ j j x U U ~ w.E 5.~ w.h.' O.=.BXA.4 S G H V 2 4 G ` S r e w w i w 1 w 0 3 G.pXE.x.y.w.6.5.5.t.5.5.} U m n x 6 J j.c H.",
"wX- L . @ q U m U m E 5.w.E ~ w.6.L +.VXNXA.G H $.#.e Z =.Z.' t 1 i w 0 e w w 4 0 p 0 rXpXY.h.0.5.{ { } 6.:.~ E M b x 6 K j.x W.",
"mX7 c O O M U m x U T m U E E i.j.6. .%.@.p +.A.Z.G #.BXZ.r 9 1 0 e r w w w e w r i w r G.2Xy.6.5.5.~ E ! 5.~ E Y x x ; I r.z 3X",
"  J 6 X o b j j m U m 5.5.T E 5.w.0.k.E.Y.x.E.x.t.} &.' 1 w r w 0 0 e i 0 1 w p r i w 4 w ) 9.w.5.^ ! E Y E E T U m x - 9.K.y wX",
"  a.o ! j ; j z x U U ~ y.U E ~ :.r.Y.W.W.z.L.L.<X9X3X!.Y.*.Z.p ; w r V i w e w w w 4 w w 2 w v [ 5.~ E Y T ~ U I E b # 9 J J nX",
"  !.8 >XU ; j j z E T T E E T E 6.t.y.x.z.4X=XR.P.=X3X6X9X4XjX+., w i a i i e w 0 w 1 w 4 4 w t r v F [ U U ~ 5.U m f ; 9.6 /   ",
"  wX$ ^ r.5 z f x E T T E 5.W 5.F.F.|.|. X2X X X2X2X2X:X3X3XhXZ.0 1 p A A i w 1 w 1 1 0 1 1 w k C k V k k l M E U x 5 ; u.m J.  ",
"  nXJ m r.c 8 x z U Y R T } 7.7..XdXaXaXaXaXaXaXaXsX2XL.I.6XQ.jX' $ w i i i w 0 1 , , < < 4 w r e C C S C k C l C k < ^ k.7 qX  ",
"    p.5 P.z : c x Y U U R E { ~  XaXiXiXiXiXiXuXiXiX Xz.%X%X<XhX$.$ < Z V i w w 4 , , < w w w r V C C D D D D F F C g z.K Q     ",
"    qX# r.0.- f x c m U T T ! ~ |.iXuXuXuXuXuXuXyXiX Xz.>X&X-XR.$.2 $ w A r w r 1 = < 1 1 w w e e e C C C D D D F l m r.z H.    ",
"      / 8 c # 5 x b b m U T E T |.uXyXyXyXyXyXyXyXuX/.f.f.z.&X>XS.a 1 , i Z w w 1 < 1 1 t w r e e e C V C C D D F ; u.k.y bX    ",
"      6X. T I.# z x n m m U E { F.yXtXtXtXtXtXtXtXyX/.2.z.P.P.K.E.` w 2 w i r 1 1 0 4 0 w w w w i V C V V C l D l @ - # p.      ",
"      MXY n r.x ; x x m m m Y ~ D.tXtX@X@X@X@XtX@X@X(.h.=XP.K.z.P.d.w 2 1 w w 0 w 0 0 e w w r i r r i V k C C C = ^ ~ - bX      ",
"        6X@ h.z . 8 x b m m K c 4.@X+X+X+X+X+X+X+X+X$XW.I.P.z.C.L.z.v 1 < 1 0 w w w 0 w e e r i i i i e r V C = 9.r.z p.        ",
"          9.X 8 ^ # z x b b x z <.#X+X+XoXoXoXoXoXoXoXP.y.4.z.%Xz.L.T % 1 4 0 2 0 0 0 0 e i e r r r e r r V w - n ! z mX        ",
"          bX5 / K.U : N x z x x I ].oXXXXXoXoXoXoXoXXXOX3.C.C.C.%XL.} , 1 1 1 w 0 0 0 e i i e w r i e r i w o 0.Y X 6X          ",
"            3X@ ^ H.c - x b m L K (.XXXXXXXXXX].].XXXXXX].}.{.{.}./.2.= 1 1 0 w 0 6 0 e a V r r i i e e e $ 0.u.c a.            ",
"              p.- 0.j.O 5 x x c c ,.].].].].].].].].].].].].].].].XX4.% 1 1 1 0 < w w r V V Z i i r w 2 $ 0.u.Y J nX            ",
"              MXQ 5 k.r.# - j j z z v.].'.'.'.'.'.'.'.'.'.'.'.'.'.].<.& 1 0 1 1 < 0 e e i i A Z w e w = { e.! 7 bX              ",
"                MXJ 8 U z m O 8 z j R `._._._.'._._._._.`.`._._._.'.B & 1 0 1 1 1 w i e V i S A e 4 X ; >XE 5 wX                ",
"                  nXK . H.k.I # 8 x x ( `.).).)._.`.).`._.`.).`.)._.h & < 1 1 1 1 w w r i i V A 1 . . - # 7 7X                  ",
"                    nXQ # ^ K.5.; ; x j I b.).).B.).).B.).B.).B.B.).b * = 1 w 1 w e i w w V i , . o m 6 7 wX                    ",
"                      MXq.- T u.w.n 5 5 y b <.M.B.B.B.N.B.B.B.N.B.B.l , * < 4 4 2 r i Z 1 % - r.8 c ; J bX                      ",
"                          Q.7 z c u.e.N - 5 5 f <.4.m.V.B.N.N.N.B.V.f 2 $ + < w w w w , 6 U H.r.I o a.MX                        ",
"                            wXQ O 8 k.j.w.5 - @ - 6 j <.N.B.N.N.B.V.4 4 4 + < 1 , $ 7 ! H.K.0.# c 3X                            ",
"                              MX-Xc @ K H.w.T ^ x q - ; 1.c.m.m.m.1.3 % , + $ x - ^ K.K ~ x 5 p.nX                              ",
"                                  MXQ.J # n ^ =Xe.k.^ ! L Y 5 K I z 8 N ~ 9.u.L.} ; T . z p.bX                                  ",
"                                      MX3XX.7 5 8 I ! e.k.&X6 n j.P.^ u.j.l.! x 7 % Q Q.mX                                      ",
"                                            mX-Xq.P 7 6 5 x X X 6 8 8 c 6 8 c X.T.gX                                            ",
"                                                    mX7X3XT.I.J.J.J.Q.-X6XwXnX                                                  "
};
