/* XPM */
static char *fcec22459d85496cb35fab8222aaf5b2kZA3WUFdFKkVOJ84[] = {
/* columns rows colors chars-per-pixel */
"32 32 211 2 ",
"   c None",
".  c #140D05",
"X  c #180F0F",
"o  c #1E1614",
"O  c #191206",
"+  c #2C1E0B",
"@  c #211613",
"#  c #271915",
"$  c #2C1C15",
"%  c #2C1D19",
"&  c #311F18",
"*  c #2E210C",
"=  c #33240D",
"-  c #3B290E",
";  c #39260C",
":  c #2E2118",
">  c #392414",
",  c #3E2C11",
"<  c #33221A",
"1  c #39271E",
"2  c #3B281E",
"3  c #291E22",
"4  c #282425",
"5  c #352322",
"6  c #3C2A21",
"7  c #382628",
"8  c #3F322B",
"9  c #202630",
"0  c #542E08",
"q  c #49300F",
"w  c #412D11",
"e  c #402B1B",
"r  c #4A2E1F",
"t  c #453112",
"y  c #4C3513",
"u  c #4F3A14",
"i  c #4A361A",
"p  c #513714",
"a  c #533B14",
"s  c #5B3D15",
"d  c #53341E",
"f  c #6E3F12",
"g  c #422D23",
"h  c #4A2D21",
"j  c #47332A",
"k  c #583723",
"l  c #473B34",
"z  c #513C34",
"x  c #5C4217",
"c  c #5E441A",
"v  c #5D4914",
"b  c #7C470F",
"n  c #614417",
"m  c #694616",
"M  c #634619",
"N  c #654919",
"B  c #6B4C1A",
"V  c #694818",
"C  c #724F1C",
"Z  c #7A4D19",
"A  c #784C16",
"S  c #6D511B",
"D  c #74531C",
"F  c #7B551E",
"G  c #765A1F",
"H  c #7B5A1F",
"J  c #7C671A",
"K  c #554637",
"L  c #594427",
"P  c #6C522E",
"I  c #7E5622",
"U  c #765725",
"Y  c #6B5733",
"T  c #745A33",
"R  c #7D6926",
"E  c #79633A",
"W  c #63534D",
"Q  c #68564F",
"!  c #6A5955",
"~  c #79615D",
"^  c #796347",
"/  c #736F75",
"(  c #73686A",
")  c #845611",
"_  c #935B1B",
"`  c #97520B",
"'  c #AA520C",
"]  c #AF5E0B",
"[  c #A15307",
"{  c #BE5A06",
"}  c #9B6214",
"|  c #BC6D09",
" . c #BB7B0B",
".. c #B06317",
"X. c #B57C1E",
"o. c #825C21",
"O. c #8A5F2D",
"+. c #846423",
"@. c #8A6222",
"#. c #856923",
"$. c #8A6C25",
"%. c #85672C",
"&. c #916624",
"*. c #936925",
"=. c #8F7026",
"-. c #947429",
";. c #9B742B",
":. c #9B7A29",
">. c #977227",
",. c #856332",
"<. c #8B6A37",
"1. c #8F7239",
"2. c #96753B",
"3. c #A17924",
"4. c #A1762A",
"5. c #A17D2B",
"6. c #A57721",
"7. c #B17F2C",
"8. c #A47D31",
"9. c #CD5A00",
"0. c #D45D00",
"q. c #C96004",
"w. c #DB6B05",
"e. c #D97708",
"r. c #C4741C",
"t. c #EA7705",
"y. c #FF7A00",
"u. c #FD7701",
"i. c #E46C06",
"p. c #806747",
"a. c #9F7842",
"s. c #937E5A",
"d. c #8A766F",
"f. c #9B8C11",
"g. c #998819",
"h. c #A28218",
"j. c #B19418",
"k. c #9C8220",
"l. c #A5812C",
"z. c #AA852D",
"x. c #AE8A2F",
"c. c #B3832C",
"v. c #BA8828",
"b. c #A68133",
"n. c #AD8430",
"m. c #AA823D",
"M. c #B38530",
"N. c #B48D32",
"B. c #BB8D34",
"V. c #BD8F3C",
"C. c #BD9433",
"Z. c #B79231",
"A. c #DF8A0D",
"S. c #DD9C08",
"D. c #C58415",
"F. c #C5901F",
"G. c #D99813",
"H. c #DD8515",
"J. c #E68006",
"K. c #FF8200",
"L. c #FF8C01",
"P. c #F48702",
"I. c #EC9508",
"U. c #FF9600",
"Y. c #FF9A01",
"T. c #F79909",
"R. c #DDBA0C",
"E. c #CAA119",
"W. c #DFAF10",
"Q. c #E4AC08",
"!. c orange",
"~. c #FFAA00",
"^. c #F4AC04",
"/. c #FFB500",
"(. c #FFBC00",
"). c #E6AC16",
"_. c #C28B2C",
"`. c #C38B21",
"'. c #D38226",
"]. c #C59C35",
"[. c #C99C35",
"{. c #C79636",
"}. c #D19D3A",
"|. c #CB9C27",
" X c #EC8520",
".X c #EE9E2A",
"XX c #C5A02A",
"oX c #D1A72D",
"OX c #CBA334",
"+X c #CFA538",
"@X c #D1A538",
"#X c #DCA63A",
"$X c #EEBF21",
"%X c #E8AC3E",
"&X c #D2C106",
"*X c #ECC105",
"=X c #FFC300",
"-X c #FFCD00",
";X c #F9C90C",
":X c #EED007",
">X c #FFD400",
",X c #FFDD00",
"<X c #F3D109",
"1X c #E0C016",
"2X c #FDE401",
"3X c #FFEC00",
"4X c #FFFD00",
"5X c #FFF500",
"6X c #B68C40",
"7X c #B39948",
"8X c #C59646",
/* pixels */
"                        ].z.>.#.$.=.x.OX                        ",
"                  ].$.x N S V - x q S D v #.@X                  ",
"              +XS c D u , b 0.q.0.9.' A * . - #.                ",
"            l.N D u y ` w.u.y.u.u.u.u.t.] t t G B x.            ",
"          $.N N u V e.K.K.y.K.y.K.K.y.K.K.t.A a B a -.          ",
"        #.B A f ) e.L.L.L.L.L.L.L.L.L.P.L.U.t.&.A p N 5.        ",
"      l.V m _ A _ U.U.U.U.U.I.D.D.A.Y.U.U.U.U.H. X..B B Z.      ",
"    @X, B s A M  .!.!.!.!.^.4.;.;.;.G.!.!.~.~.T..Xr.V c S       ",
"    U x = s s C S./.~././.G.b.n.n.l.v.=X^.D.6.*.1.O.P i V U     ",
"  ].x x y p s I Q.=X=X(.=X).B.Z.Z.C.x.g.R l.j.j.,.T Y L w x     ",
"  #.B ; V M x I W.>X-X>X-X;X[.}.{.<.K K R R P E ,.o.) c u G :.  ",
"  D N - V B B I F.2X,X,X,X2X$Xm.K 9 K Y 1.z.4.&.o.&.o.f t x H   ",
"].y w s n C o.&.6.2X3X3X5X&Xv 3 9 T V.@X[.B.N.;.>.C B s y p H   ",
":.x t M a N o.;.;.E.4X4Xf.< 3 % : %.%X#X{.B.n.;.>.o.F x a w B C.",
"#.N w x V D o.@.5.M.1Xf.5 ~ d.W < 7 p.8X}.B.M.4.;.o.*.V a w S z.",
"#.S - x x C @.&.4.4.k 7 z j o j 7 W ( ^ #XB.M.;.;.@.D M a w V :.",
"+.y , a V m &.*.,.! Q $ z g 6 z 6 < : : g.oXz.&.&.*.I x a w x :.",
"$.. + s n F F o.U / ( z z l ! g < < 1 : : j.XX&.I o.o.B u w D z.",
"z.O * u s V C I &.2.%.8.<.^ z & : 6 < 1 5 1 J o.o.D D B s t B ].",
"].x u > s C U C *.7.{._.[.+X7XW $ 6 6 : & & # e k c M B a - a   ",
"  G B > s B C o.R.:X:X:X<X|.[.s.5 6 6 < # # $ 1 h h r d e n +.  ",
"  =.x = a n B ) (.,X,X>X>XF._.V.8 # 6 < # # < 1 g h h k d D l.  ",
"  +Xy u w a n G Q.-X=X;X=X7.M._.T $ 1 < $ & < 1 6 g h r w x     ",
"    $.u + p a x S././././.`.7.c.;.: $ < : < 1 2 6 2 g > N -.    ",
"      u G - y t  .~.~.~.~.I.r.'.v.2 $ : : = 6 2 2 1 : x x       ",
"      N.V x = u ) !.Y.Y.Y.Y.Y.T.T.y # % : 2 8 6 2 & B D OX      ",
"        5.y a = , | U.U.U.L.U.U.P.> # $ < 1 8 g @ = B N.        ",
"          :.N D , > ] K.K.K.y.K.t.+ @ $ 1 1 < < . = x.          ",
"            Z.x n N = 0 [ w.u.K.i.$ X # : 6 N N u +X            ",
"                #.B N x y s { q.' $ w y y M D -.                ",
"                    :.G S B N * B M C G N :.                    ",
"                          Z.l.-.:.z.].                          "
};
